<svg xmlns="http://www.w3.org/2000/svg" xmlns:xlink="http://www.w3.org/1999/xlink" width="580.297" height="375.74" viewBox="0 0 580.297 375.74"><defs><style>.a{fill:#ffa020;}.b{fill:#4b5afc;}.c{fill:#082630;}.d{clip-path:url(#a);}.e{fill:#efefef;}.f{fill:#fcbc94;}.g{fill:#f4e1d3;}.h{fill:none;stroke:#000;stroke-miterlimit:10;}.i,.j,.k,.l,.m{fill:#373737;}.i{opacity:0.49;}.j{opacity:0.14;}.k{opacity:0.32;}.m{opacity:0.07;}.n{fill:#3e4b51;}.o{fill:#1a2328;}.p{fill:#fbc03f;}.q{fill:#0f75bd;}.r{fill:#05466f;}.s{fill:#00a0de;}.t{fill:#085b8d;}</style><clipPath id="a"><rect width="485.364" height="375.74"/></clipPath></defs><g transform="translate(416.943 56.792)"><path class="a" d="M580.3,588.516,0,844Z" transform="translate(-416.943 -587.039)"/><path class="b" d="M907.657,658.788Z" transform="translate(-992.191 -583.34)"/><path class="b" d="M264.566,450.068h0Z" transform="translate(-204.407 -314.768)"/><path class="c" d="M1284.853,233.466a.936.936,0,0,0,.086-.43c0-.172.086-.258.086-.43s-.086-.258-.086-.43a.645.645,0,0,0-.086-.43l-52.245-89.084a1.808,1.808,0,0,0-1.549-.861l-103.716.947a1.644,1.644,0,0,0-1.205.6c-.086.086-.258.172-.344.344h0l-50.524,90.031a2.009,2.009,0,0,0,0,1.721l52.245,89.084h0a1.194,1.194,0,0,0,.689.6h.258a1.6,1.6,0,0,0,.6.172l103.716-.947a1.923,1.923,0,0,0,1.549-.861Zm-54.741-88.137,50.18,85.555-35.806.344-63.951.6-50.18-85.555Zm-151.227,89.256,48.544-86.5,50.18,85.555-12.739,22.637-35.806,63.865Zm53.192,87.276,41.831-74.452,6.714-12.05,99.671-.947-48.544,86.5Z" transform="translate(-1231.629 -117.282)"/><g transform="translate(-369.477 -56.792)"><g class="d" transform="translate(0)"><path class="e" d="M719.435,800.4,796.4,842.843l-32.252,62.049-69.607-38.35a2.745,2.745,0,0,1-1.3-1.551,12.835,12.835,0,0,1-.293-5.86,46.884,46.884,0,0,1,2.552-10.169c0-.043.042-.086.042-.129.418-1.206.878-2.5,1.422-3.878.795-1.982,1.715-4.18,2.8-6.593Z" transform="translate(-453.098 -502.049)"/></g><g class="d" transform="translate(0)"><path class="f" d="M419.437,565.605l63.206,44.641L618.72,685.264l-35.389,68.124-72.7-45.115-1.129-.689-4.769-2.973c-16.44-9.566-28.7-7.972-28.7-7.972-9.914,2.154-25.1-5.257-25.1-5.257l-36.351-20.9h0l-.251-.129a.314.314,0,0,0-.167-.086,2.536,2.536,0,0,1-.418-.3.917.917,0,0,1-.209-.172c-.084-.043-.126-.086-.209-.129s-.167-.129-.251-.172-.126-.129-.209-.172c-.042-.043-.084-.043-.084-.086a.919.919,0,0,1-.209-.172c-.376-.345-.795-.689-1.213-1.12l-.084-.086c-.084-.043-.125-.129-.209-.172l-.251-.259c-.293-.3-.627-.646-.92-.991l-.209-.215a.753.753,0,0,1-.167-.215c-.042-.086-.125-.129-.167-.215s-.125-.129-.167-.215l-.167-.172c-.084-.086-.167-.215-.251-.3s-.167-.215-.251-.3-.167-.215-.251-.3a2.388,2.388,0,0,1-.251-.345c-.084-.129-.167-.215-.251-.345l-.251-.388a1.83,1.83,0,0,1-.209-.3c-.084-.129-.125-.215-.209-.345s-.125-.215-.209-.345c-.042-.086-.125-.215-.167-.3-.042-.043-.042-.086-.084-.129-.042-.086-.084-.129-.125-.216s-.084-.129-.125-.215-.084-.129-.125-.215c-.209-.388-.377-.776-.544-1.163-.125-.3-.209-.56-.335-.862,0-.043-.042-.043-.042-.086a1.843,1.843,0,0,0-.084-.215,14.132,14.132,0,0,1-.669-6.334c.042-.215.084-.388.125-.6.042-.129.042-.259.084-.431.042-.086.042-.215.084-.3.084-.259.125-.474.209-.733a11.187,11.187,0,0,1,.878-2.025,4.552,4.552,0,0,1,.293-.474.226.226,0,0,0,.084-.172.754.754,0,0,1,.167-.215l.042-.043a.593.593,0,0,0,.125-.172.042.042,0,0,1,.042-.043l.125-.129c.042-.043.084-.086.084-.129s.042-.043.042-.086c.293-.345.586-.646.878-.948l.125-.129a6.123,6.123,0,0,1,.92-.733c.084-.043.125-.086.209-.129.042-.043.084-.043.125-.086.167-.129.376-.215.5-.3a2.834,2.834,0,0,1,.544-.258l.251-.043-.084-.043a.316.316,0,0,1,.125-.043h0a11.545,11.545,0,0,1-1.046-.991l-.586-.6-.209-.215-.042-.043c-.125-.129-.209-.258-.335-.388a16.853,16.853,0,0,1-1.715-2.37.948.948,0,0,0-.126-.215l-.376-.646-.126-.259c0-.043-.042-.043-.042-.086a.948.948,0,0,0-.125-.215c-.042-.043-.042-.086-.084-.129-.042-.086-.084-.129-.084-.215a4.859,4.859,0,0,1-.293-.689,2.135,2.135,0,0,1-.125-.3,3.869,3.869,0,0,1-.209-.646.817.817,0,0,1-.084-.3c-.042-.086-.042-.172-.084-.215-.042-.086-.042-.172-.084-.215,0-.043-.042-.086-.042-.172-.042-.086-.042-.172-.084-.259a.161.161,0,0,0-.042-.129c-.042-.172-.084-.3-.125-.474a8.294,8.294,0,0,1-.251-1.336c0-.086-.042-.215-.042-.3s-.042-.172-.042-.258c0-.129-.042-.258-.042-.388a16.261,16.261,0,0,1,.209-4.74,14.73,14.73,0,0,1,2.97-5.645c.084-.129.209-.215.293-.345.042-.043.084-.129.167-.172a1.136,1.136,0,0,0,.209-.259l.167-.172a18.329,18.329,0,0,1,1.882-1.594c.084-.043.125-.086.209-.129.042-.043.084-.043.125-.086s.084-.043.125-.086c.084-.043.125-.086.209-.129.46-.259.837-.474,1.046-.6a.145.145,0,0,0,.084-.043c.084-.043.125-.043.167-.086h.084s-.125-.172-.377-.474c-.042-.043-.042-.086-.084-.086-.167-.215-.335-.517-.544-.862a10.653,10.653,0,0,1-.753-1.422c-.042-.043-.042-.086-.084-.129a15.283,15.283,0,0,1-.878-2.585.562.562,0,0,1-.042-.259,11.074,11.074,0,0,1-.209-1.25.4.4,0,0,0-.042-.215c-.042-.3-.042-.56-.084-.862v-1.293c0-.3.042-.6.042-.9,0-.086.042-.215.042-.345s.042-.259.042-.388.042-.215.042-.345c.042-.172.042-.3.084-.474.042-.129.042-.258.084-.388v-.086c0-.086.042-.172.042-.259a1.916,1.916,0,0,0,.042-.216c.042-.086.042-.215.084-.3s.042-.172.084-.258v-.043c.042-.086.042-.216.084-.3a.816.816,0,0,0,.084-.3c.042-.172.125-.3.167-.474a2.127,2.127,0,0,0,.126-.3c.084-.172.125-.345.209-.517a4.554,4.554,0,0,0,.167-.431c.042-.129.125-.259.167-.388l.251-.517h0a.042.042,0,0,1,.042-.043l.042-.043c.042-.086.167-.215.293-.388.042-.043.042-.086.084-.129a7.63,7.63,0,0,1,.586-.646c.084-.086.125-.172.209-.215.209-.215.418-.431.669-.646l.125-.129a10.59,10.59,0,0,1,1-.819c.084-.043.125-.086.209-.129.209-.129.418-.3.669-.431.084-.043.125-.086.209-.129a4.526,4.526,0,0,0,.46-.259,10.91,10.91,0,0,1,3.388-1.163c.5-.086,1.046-.129,1.59-.172h.92a1.383,1.383,0,0,1,.418.043.8.8,0,0,1,.293.043h.042c.084,0,.209.043.293.043.125,0,.251.043.376.043.084,0,.209.043.335.043.084,0,.209.043.293.043.293.086.586.129.878.216l-4.225-2.8-18.657-12.5s-11.545-6.593-18.071-9.221c0,0-13.93-5.731-9.37-14.478,0,0,3.932-9.824,17.987-3.059l9.5,3.792,2.217.9Z" transform="translate(-267.089 -360.844)"/></g><g class="d" transform="translate(0)"><g transform="translate(38.861 6.636)"><path class="e" d="M359.453,514.725,342.8,594.268,276,579.445,294.406,491.5l40.827,9.049c1.339.388,2.635.733,3.807,1.12,1.339.431,2.635.819,3.807,1.25.084.043.167.043.251.086a52.308,52.308,0,0,1,11.922,5.6,12.971,12.971,0,0,1,4.141,4.05A3.2,3.2,0,0,1,359.453,514.725Z" transform="translate(-249.521 -332.888)"/><path class="f" d="M319.494,260.467s-9.077,8.575-12.675,27.706l-.837,5.257-.209,1.25-.544,3.447-8.617,54.465-4.56,28.87L212.7,363.839l1.422-4.094,14.6-42.141,8.324-24h0l8.366-24.173.293-.776a24.415,24.415,0,0,0,.711-2.5,22.062,22.062,0,0,0-2.008-15.038v-.043l-19.619-37.229V213.8c-.084-.129-.125-.259-.209-.388a1.554,1.554,0,0,1-.167-.388c-.042-.129-.126-.259-.167-.388l-.5-1.163-.125-.388c-.125-.388-.251-.819-.376-1.206-.042-.215-.125-.431-.167-.646,0-.043-.042-.086-.042-.129-.042-.129-.042-.215-.084-.345a14.677,14.677,0,0,1-.376-2.672.656.656,0,0,0-.042-.3c-.042-.431-.042-.862-.042-1.25a12.477,12.477,0,0,1,.042-1.25,17.972,17.972,0,0,1,1.171-5.3,1.617,1.617,0,0,1,.209-.474s11.88-28.094,12.675-38.091c0,0,1.255-7.024,3.472-10.514l.042-.043.042-.043c.042-.086.167-.215.293-.431.042-.043.042-.086.084-.129.084-.172.209-.345.293-.56.042-.129.125-.215.167-.345.084-.172.126-.3.209-.474,0-.043.042-.086.042-.129.084-.215.167-.474.251-.733h0a.161.161,0,0,1,.042-.129,2.222,2.222,0,0,0,.084-.517v-.991l1.882-16.159s.042-.215.125-.56v-.086a.625.625,0,0,1,.084-.259c.042-.086.042-.172.084-.215,0-.043.042-.086.042-.172a3.026,3.026,0,0,1,.167-.431l.125-.259c.042-.086.084-.129.126-.215,0-.043.042-.086.042-.129a.33.33,0,0,0,.084-.172c0-.043.042-.043.042-.086.042-.043.084-.129.125-.172.042-.086.125-.172.167-.259l.084-.086c.042-.043.042-.086.084-.086l.125-.129a4.848,4.848,0,0,1,.46-.474l.084-.086.084-.086.084-.086.084-.086a3.982,3.982,0,0,1,1.506-.6.151.151,0,0,0,.125-.043,2.5,2.5,0,0,1,.586-.043h.5a1.979,1.979,0,0,1,.5.043h.125c.084,0,.167.043.251.043a.151.151,0,0,1,.125.043c.167.043.335.086.46.129,0,0,8.283,1.379,10.834,17.882a12.455,12.455,0,0,1,1.757-1.594c2.343-1.853,6.777-4.309,11.671-2.025a12.516,12.516,0,0,1,7.4,7.842,11.132,11.132,0,0,1,.46,2.758,11.078,11.078,0,0,1,3.472-2.025,14.223,14.223,0,0,1,8.2-.474s7.4,1.25,10.416,11.548h0c.125.474.251.948.376,1.465h0a1.731,1.731,0,0,1,.209-.086c.042,0,.084-.043.125-.043a4.4,4.4,0,0,1,.711-.259c.209-.086.46-.129.753-.215a13.017,13.017,0,0,1,8.283.646,17.379,17.379,0,0,1,8.45,14.349c.042.474.042.948.042,1.465a.128.128,0,0,0,.084-.043h.042a82.38,82.38,0,0,0,.084-.086c.042,0,.042-.043.084-.043a.145.145,0,0,0,.084-.043,4.262,4.262,0,0,1,.418-.172,9.848,9.848,0,0,1,9.119,1.077s2.594.9,4.267,4.654h0a9.606,9.606,0,0,1,.627,1.767l1.255,3.921a3.025,3.025,0,0,0,.126.345v.129l.125.388c0,.086.042.129.042.215,0,.043.042.129.042.172.042.086.042.172.084.259v.129a1.571,1.571,0,0,1,.084.431,2.593,2.593,0,0,1,.084.56c.042.172.042.388.084.56h0c0,.086.042.172.042.3v.086c0,.086.042.215.042.3v.259c0,.172.042.3.042.474v1.724c0,.3-.042.56-.042.862a4.884,4.884,0,0,1-.084.776v.086c-.042.172-.042.345-.084.517v.043c0,.086-.042.172-.042.3v.086c0,.086-.042.129-.042.215s-.042.172-.042.259l-.251,1.379-7.781,40.72C331.834,237.328,327.484,254.047,319.494,260.467Z" transform="translate(-212.7 -123.4)"/><g transform="translate(0 0.043)"><path class="f" d="M289.962,238.721,261.517,374.754,212.7,363.939l1.422-4.094,14.6-42.141,8.324-24h0l8.366-24.173.293-.776a24.407,24.407,0,0,0,.711-2.5,22.062,22.062,0,0,0-2.008-15.038v-.043l-19.619-37.229V213.9c-.084-.129-.125-.259-.209-.388a1.553,1.553,0,0,1-.167-.388c-.042-.129-.125-.259-.167-.388l-.5-1.163-.126-.388c-.125-.388-.251-.819-.376-1.206-.042-.215-.125-.431-.167-.646,0-.043-.042-.086-.042-.129-.042-.129-.042-.215-.084-.345a14.677,14.677,0,0,1-.376-2.672.656.656,0,0,0-.042-.3c-.042-.431-.042-.862-.042-1.25a12.469,12.469,0,0,1,.042-1.25,17.972,17.972,0,0,1,1.171-5.3,1.616,1.616,0,0,1,.209-.474s11.88-28.094,12.675-38.091c0,0,1.255-7.024,3.472-10.514l.042-.043.042-.043c.042-.086.167-.215.293-.431.042-.043.042-.086.084-.129.084-.172.209-.345.293-.56.042-.129.126-.215.167-.345.084-.172.125-.3.209-.474,0-.043.042-.086.042-.129.084-.215.167-.474.251-.733h0c0-.043.042-.086.042-.129a2.224,2.224,0,0,0,.084-.517v-.991l1.882-16.159s.042-.215.125-.56v-.086a.625.625,0,0,1,.084-.259c.042-.086.042-.172.084-.215,0-.043.042-.086.042-.172a3.022,3.022,0,0,1,.167-.431l.125-.259c.042-.086.084-.129.125-.215,0-.043.042-.086.042-.129a.331.331,0,0,0,.084-.172c0-.043.042-.043.042-.086.042-.043.084-.129.125-.172.042-.086.126-.172.167-.259l.084-.086c.042-.043.042-.086.084-.086l.125-.129a4.849,4.849,0,0,1,.46-.474l.084-.086.084-.086.084-.086.084-.086a3.982,3.982,0,0,1,1.506-.6.151.151,0,0,0,.125-.043,2.5,2.5,0,0,1,.586-.043h.5a1.98,1.98,0,0,1,.5.043h.125c.084,0,.167.043.251.043a.151.151,0,0,1,.125.043c.167.043.335.086.46.129,0,0,8.283,1.379,10.834,17.882h0v.129h0v.862a8.948,8.948,0,0,0,.042.991v1.68h0v1.163a1.82,1.82,0,0,1-.042.474c-.042.819-.125,1.68-.209,2.628a.865.865,0,0,1-.042.3c-.042.431-.084.9-.167,1.379,0,.086-.042.215-.042.3v.086c0,.086-.042.215-.042.3v.086c-.042.172-.042.3-.084.474a41.537,41.537,0,0,1-3.012,10.514,39.629,39.629,0,0,0-2.719,21.286,29.081,29.081,0,0,0,.753,4.266c.042.172.084.345.126.474,0,.043.042.086.042.172h0c.042.086.042.129.084.215.042.129.084.215.126.345.042.086.042.129.084.215a.741.741,0,0,1,.084.215c.042.086.084.129.125.215s.084.129.125.215c.084.129.167.3.251.431.042.086.084.129.126.215s.084.129.125.215.084.129.125.215c.084.129.209.259.293.388.042.086.125.129.167.172a8.813,8.813,0,0,0,3.681,2.542,50.987,50.987,0,0,1,19.326,12.453l.335.345c.126.129.251.3.376.431a6.981,6.981,0,0,1,.711.862c.042.043.084.129.125.172.126.172.251.3.376.474.251.3.46.6.711.9a7.618,7.618,0,0,1,.669.948c.167.215.293.431.46.646a1.825,1.825,0,0,1,.209.3c.167.215.293.474.46.689.084.129.126.215.209.345.125.259.293.474.418.733l.125.259c.209.388.418.733.627,1.12.126.259.251.474.377.733v.043c.084.215.209.431.293.646,0,.043,0,.043.042.086a4.265,4.265,0,0,1,.209.474c.293.689.586,1.379.837,2.068.042.172.125.345.167.474.084.259.167.517.251.733l.126.388c.042.129.084.259.125.431.042.129.084.259.125.431h0c.084.345.209.689.293,1.077.042.172.084.345.125.56.042.172.084.388.125.56.042.129.042.215.084.345l.125.646v.043c.042.172.084.388.125.56s.042.345.084.517a10.43,10.43,0,0,1,.167,1.206c0,.129.042.3.042.431.042.431.125.9.167,1.379,0,.172.042.388.042.56s.042.345.042.517.042.345.042.56c.042.517.042.991.042,1.508v1.68c0,.646-.042,1.336-.084,2.025-.042.776-.126,1.551-.209,2.37v.043c.251-.086.251,0,.251.129Z" transform="translate(-212.7 -123.5)"/><path class="g" d="M281.5,150.916a5.317,5.317,0,0,0,.167-1.637l1.882-16.159a9.281,9.281,0,0,1,.293-1.12l.878.6a.992.992,0,0,1,.418.9L284.01,143.72A13.149,13.149,0,0,1,281.5,150.916Z" transform="translate(-252.72 -128.337)"/></g><path class="h" d="M275.8,284.1h0Z" transform="translate(-249.405 -214.855)"/><path class="i" d="M282.36,382.767s-8.073,1.724-13.428-1.422c0,0-2.635-.819-3.1,3.533,0,0-.209.646-.627,1.81a267.606,267.606,0,0,1-11.253,26.457l8.659-24.949a24.415,24.415,0,0,0,.711-2.5,22.062,22.062,0,0,0-2.008-15.038v-.043L241.7,333.386V333.3l22.589,33.524C264.247,366.78,274.119,380.052,282.36,382.767Z" transform="translate(-229.569 -242.855)"/><path class="j" d="M389.22,228.011a37.97,37.97,0,0,0,8.073-13.444h0l.251-1.379a19.1,19.1,0,0,0-.418-8.963c-.042-.129-.084-.3-.125-.431l-1.255-3.921a17.157,17.157,0,0,0-.627-1.767h0a8.457,8.457,0,0,0-4.267-4.654,9.981,9.981,0,0,0-9.119-1.077c-.5.215-.795.388-.837.388h0c0-.517,0-.991-.042-1.465a17.379,17.379,0,0,0-8.45-14.349,13.323,13.323,0,0,0-8.283-.646,8.369,8.369,0,0,0-1.8.6c-.126-.517-.251-.991-.376-1.465h0c-3.012-10.3-10.416-11.548-10.416-11.548a14.189,14.189,0,0,0-8.2.474,11.078,11.078,0,0,0-3.472,2.025,11.487,11.487,0,0,0-.46-2.758,12.516,12.516,0,0,0-7.4-7.842c-4.894-2.284-9.328.215-11.671,2.025a12.456,12.456,0,0,0-1.757,1.594s.92,11.031-3.6,21.286a39.63,39.63,0,0,0-2.719,21.286,29.08,29.08,0,0,0,.753,4.266,9.284,9.284,0,0,0,4.894,5.989c2.426.776,13.511,4.783,21.5,14.392.042.043.084.129.125.172.125.172.251.3.376.474,5.062,6.291,8.659,14.909,7.906,26.457.418-2.068,3.3-18.141-8.994-30.378,0,0,3.723,1.724,5.522-.776,0,0,11.127,13.53,21.836,3.318,0,0-.753,10.859,19.493,4.309,0,0,3.723-.948,7.781,4.137C393.445,234.345,392.19,229.95,389.22,228.011Z" transform="translate(-270.379 -141.315)"/><g transform="translate(41.478 13.65)"><path class="f" d="M314.971,180.942a39.629,39.629,0,0,0-2.719,21.286,29.076,29.076,0,0,0,.753,4.266,12.032,12.032,0,0,0,.627,1.724c1.673,2.672,5.438,3.49,5.438,3.49,5.731,1.293,9.245-5.257,9.245-5.257,4.183-7.713,5.313-20.252,5.313-20.252,1.464-15.167,6.233-19.606,6.233-19.606a11.486,11.486,0,0,0-.46-2.758,12.516,12.516,0,0,0-7.4-7.842c-4.894-2.284-9.328.215-11.671,2.025a12.456,12.456,0,0,0-1.757,1.594A49.426,49.426,0,0,1,314.971,180.942Z" transform="translate(-311.857 -155.079)"/><path class="f" d="M386.455,186.939h0c-3.012-10.3-10.416-11.548-10.416-11.548a14.19,14.19,0,0,0-8.2.474,11.078,11.078,0,0,0-3.472,2.025s-4.811,4.481-6.233,19.606a78.576,78.576,0,0,1-2.468,13.013,26.187,26.187,0,0,0-1.046,5.688c-.167,1.982-.376,4.05-.376,4.05a8.489,8.489,0,0,0,5.773,10.341c5.605,1.25,8.952-.819,10.709-2.715A8.926,8.926,0,0,0,372.818,224l6.316-24.3c2.552-11.16,7.739-11.333,7.739-11.333C386.748,187.887,386.622,187.413,386.455,186.939Z" transform="translate(-336.365 -166.419)"/><path class="f" d="M429.87,220.7l-15.477,31.929s-3.89,6.2-12.549,2.542c0,0-8.659-3.189-4.936-13.659h0c.125-.345.209-.646.335-.991l6.316-24.3c2.426-10.686,7.32-11.289,7.7-11.333a9.465,9.465,0,0,1,1.841-.6,13.017,13.017,0,0,1,8.283.646,17.379,17.379,0,0,1,8.45,14.349C429.828,219.706,429.87,220.18,429.87,220.7Z" transform="translate(-360.789 -182.855)"/><path class="f" d="M465.241,272.831c-9.579,9.824-17.82,6.2-17.82,6.2-5.313-3.4-.753-13.659-.753-13.659l11.587-23.958h0a6.428,6.428,0,0,1,.837-.388,9.848,9.848,0,0,1,9.119,1.077s2.594.9,4.267,4.654h0a9.606,9.606,0,0,1,.627,1.767l1.255,3.921c.042.129.084.3.125.431C474.151,261.24,465.241,272.831,465.241,272.831Z" transform="translate(-389.217 -203.62)"/></g><path class="i" d="M356.49,282.378s-9.077,8.575-12.675,27.706l-14.808,93.289-5.187-1.163L339.507,312.2c1.715-7.153-1.631-9.652-1.631-9.652l-7.571-5.86c13.6-1.422,15.31-8.532,15.31-8.532a24.786,24.786,0,0,1,4.141-7.2,16.184,16.184,0,0,1,2.719-2.672c7.53-5.774,11.629-16.977,11.629-16.977a12.267,12.267,0,0,0-3.639-12.324c-5.605-5-10.667.733-10.667.733-4.35,3.447-7.488-1.206-7.488-1.206-10.834-15.9-15.436,11.548-15.394,12.065-8.157-46.235-36.937-42.874-36.937-42.874,1.631-1.637.627-2.973.627-2.973-1.3-1.293-12.507-.345-14.306-.172,15.519-1.637,13.553-8.618,13.553-8.618-.878-6.162-8.408-8.058-8.408-8.058,6.442.991,8.115-3.964,8.115-3.964a3.463,3.463,0,0,0-1.213-4.481L280.4,185.47c17.318,5.386,17.485-21.976,17.485-21.976a12.457,12.457,0,0,1,1.757-1.594,50.051,50.051,0,0,1-3.263,23.527,19.7,19.7,0,0,0-1.046,3.49l-.753,3.706c-1,6.851,5.605,8.1,5.605,8.1,1.673.388,8.032,1.551,9.956-6.033l2.008-14.306a23.227,23.227,0,0,1,6.567-12.668,11.133,11.133,0,0,1,.46,2.758,11.077,11.077,0,0,1,3.472-2.025,18.711,18.711,0,0,0-6.693,11.246l-5.187,28.913c-1.3,6.119,6.316,8.7,6.316,8.7,3.723,1.336,6.191.345,7.655-.819a6.019,6.019,0,0,0,2.05-3.1l6.568-22.579c3.472-11.376,7.906-11.333,7.906-11.333.125.474.251.948.376,1.465a12.931,12.931,0,0,1,1.8-.6c-5.9,2.327-7.739,8.359-7.739,8.359l-7.237,28.439c-2.594,9.35,5.773,11.462,5.773,11.462,6.9,2.844,11.253-6.55,11.253-6.55l14.683-26.715c.042.474.042.948.042,1.465a6.621,6.621,0,0,1,.837-.388l-11.378,24.13c-2.761,6.033,6.526,6.765,6.526,6.765,17.653,2.37,18.2-24.906,18.2-25.207a9.6,9.6,0,0,1,.627,1.767l1.255,3.921a18.808,18.808,0,0,1,.544,9.393l-8.032,42.1C368.83,259.239,364.48,275.958,356.49,282.378Z" transform="translate(-249.696 -145.311)"/><path class="k" d="M322.632,493.782l-.293,1.336L309.706,544.2l-1.3,5-5.982,23.354L239.179,558.5l.042-.215-26.521-5.9,1.422-4.093,13.009-37.531,1.59-4.611,8.324-24h0l8.366-24.173.293-.776a24.407,24.407,0,0,0,.711-2.5c.628.3,1.255.646,1.882.991,8.952,4.654,20.664,10.643,32.293,16.2,5.271,2.542,10.541,5,15.519,7.2,2.008.9,4.016,1.767,5.9,2.585q1.945.84,3.765,1.551c.084.043.125.043.209.086a121.238,121.238,0,0,0,12.173,4.352,12.972,12.972,0,0,1,4.141,4.05A2.969,2.969,0,0,1,322.632,493.782Z" transform="translate(-212.7 -311.945)"/><path class="e" d="M320.209,495.126l-12.34,48-.209.819L301.678,567.3l-1.088,4.18L214,552.262l19.786-94.624a4.576,4.576,0,0,1,6.609-3.232c1.631.862,3.639,1.939,5.9,3.1.544.3,1.088.56,1.673.862,8.7,4.568,20.79,10.729,32.754,16.46a2.524,2.524,0,0,1,.586.3c7.32,3.49,14.557,6.808,20.957,9.48,1.3.56,2.594,1.077,3.807,1.551A102.96,102.96,0,0,0,317.281,490,4.223,4.223,0,0,1,320.209,495.126Z" transform="translate(-213.456 -311.479)"/></g><path class="k" d="M311.965,606.988l-5.982,28.654-92.781-20.6.042-.215-.544-.129,1.422-4.094,9.7-46.407c1.3,1.206,2.928,2.672,4.894,4.309a156.436,156.436,0,0,0,18.657,12.927,218.957,218.957,0,0,0,21.041,10.988c6.944,3.189,14.766,6.42,23.509,9.523.669.215,1.339.474,1.966.689.042,0,.084.043.125.043.837.3,1.673.56,2.552.819,1.255.345,2.51.689,3.765.948Z" transform="translate(-173.839 -367.626)"/><path class="l" d="M271.068,621.977,239.695,772.014,137,749.22l36.267-173.435a3.065,3.065,0,0,1,5.1-1.68c.125.086.209.215.335.3,1.171,1.12,2.635,2.413,4.35,3.835a151.389,151.389,0,0,0,19.2,13.358A218.961,218.961,0,0,0,223.3,602.587c6.986,3.232,14.85,6.42,23.676,9.566.586.215,1.213.431,1.841.646.042,0,.084.043.126.043.92.3,1.841.6,2.8.862q1.757.517,3.514.9l12.968,2.887A3.8,3.8,0,0,1,271.068,621.977Z" transform="translate(-129.805 -372.791)"/><g transform="translate(86.966 176.753)"><path class="m" d="M382,590.633,350.623,740.671,327.7,735.586,373.17,518.2a52.314,52.314,0,0,1,11.922,5.6,12.971,12.971,0,0,1,4.141,4.05,2.837,2.837,0,0,1,.293,2.025L377.813,585.85l1.38.3A3.807,3.807,0,0,1,382,590.633Z" transform="translate(-327.7 -518.2)"/><path class="m" d="M407.126,680.04,375.752,830.077,370.9,829l32.126-153.7,1.3.3A3.74,3.74,0,0,1,407.126,680.04Z" transform="translate(-352.829 -607.607)"/></g></g><g class="d" transform="translate(0)"><path class="h" d="M624.084,639.3c-.042.043-.042.043-.084.043Z" transform="translate(-413.088 -410.366)"/></g><g class="d" transform="translate(0)"><path class="f" d="M531.741,587.774l1.966,2.585c.335.431.669.9,1.088,1.422.042.043.084.129.167.215.042.043.084.129.167.172.335.474.711.948,1.088,1.465h0c6.107,8.1,16.4,21.76,16.4,21.76,6.986,7.454,13.511,13.659,19.828,17.968a45.159,45.159,0,0,0,4.225,2.628l84.624,46.623-21.166,40.763L519.4,656.933c-.335-.172-.669-.388-1-.56s-.669-.388-1-.56a7.344,7.344,0,0,1-.962-.6c-.293-.172-.586-.345-.837-.517a2.33,2.33,0,0,1-.335-.215c-.209-.129-.377-.258-.586-.388a.909.909,0,0,1-.209-.129l-.753-.517c-.042-.043-.084-.043-.126-.086-.251-.172-.544-.388-.795-.56a.041.041,0,0,1-.042-.043c-.293-.215-.586-.388-.837-.6h0c-.209-.172-.418-.3-.628-.474a3.176,3.176,0,0,1-.586-.474.041.041,0,0,1-.042-.043.579.579,0,0,0-.167-.129c-.209-.172-.418-.3-.627-.474a7.193,7.193,0,0,1-.586-.474c-.042-.043-.084-.043-.084-.086l-.042-.043c-.376-.3-.711-.6-1.088-.9-.042-.043-.084-.086-.125-.086-.125-.129-.251-.215-.376-.345-.084-.086-.167-.129-.209-.215-.125-.129-.251-.215-.376-.345-.042-.043-.084-.086-.126-.086-.084-.043-.125-.129-.167-.172l-.042-.043c-.125-.129-.293-.259-.418-.388-.042-.043-.084-.086-.125-.086l-.042-.043-.125-.129-.167-.172-.084-.086-.042-.043-.084-.086a.041.041,0,0,1-.042-.043h0l-.125-.129a1.839,1.839,0,0,0-.293-.258l-.126-.129-.293-.3-.209-.215-.042-.043-.125-.129-.418-.431h0l-.125-.129c-.125-.129-.251-.3-.377-.431s-.251-.3-.376-.431a.594.594,0,0,1-.125-.172,2.945,2.945,0,0,1-.46-.56.042.042,0,0,0-.042-.043h0c-.125-.129-.209-.258-.335-.388-.293-.345-.544-.689-.837-1.034-.084-.086-.126-.172-.209-.259l-.376-.517a3.738,3.738,0,0,1-.293-.431.042.042,0,0,0-.042-.043,3.717,3.717,0,0,1-.293-.431c-.126-.172-.209-.3-.335-.474s-.209-.3-.335-.474c-.084-.172-.209-.3-.293-.474a.136.136,0,0,1-.042-.086,2.389,2.389,0,0,0-.251-.345h0a1.087,1.087,0,0,1-.167-.3,3.958,3.958,0,0,1-.335-.56c-.125-.172-.209-.388-.335-.56a.041.041,0,0,0-.042-.043,3.8,3.8,0,0,1-.251-.431c-.084-.172-.167-.3-.251-.474-.084-.129-.125-.215-.209-.345-.125-.215-.209-.388-.335-.6a2.038,2.038,0,0,1-.209-.431c0-.043-.042-.043-.042-.086a4.051,4.051,0,0,1-.209-.431.042.042,0,0,0-.042-.043v-.043a2.343,2.343,0,0,1-.209-.474,4.267,4.267,0,0,1-.209-.474l-.125-.259-.125-.259c-.042-.043-.042-.086-.084-.129,0-.043-.042-.086-.042-.129a.74.74,0,0,1-.084-.216,1.83,1.83,0,0,1-.167-.431.877.877,0,0,0-.167-.345c-.042-.129-.125-.258-.167-.388s-.084-.215-.125-.345c-.042-.086-.042-.129-.084-.215-.042-.172-.125-.3-.167-.474,0-.043-.042-.129-.042-.172s0-.043-.042-.086a.152.152,0,0,0-.042-.086c-.042-.129-.084-.215-.125-.345-.042-.086-.042-.129-.084-.215l-.125-.388a3.039,3.039,0,0,0-.125-.345c0-.043,0-.043-.042-.086-.042-.129-.084-.3-.125-.431h0c-.042-.086-.042-.215-.084-.3-.042-.129-.084-.259-.125-.431h0a4.091,4.091,0,0,0-.167-.56v-.043l-.125-.517c0-.086-.042-.129-.042-.215-.042-.172-.084-.3-.125-.474-.042-.215-.126-.431-.167-.689-.042-.129-.042-.259-.084-.431l-.125-.517h0c-.042-.129-.042-.3-.084-.431v-.172c0-.043-.042-.129-.042-.172v-.086c0-.043-.042-.129-.042-.172v-.129c-.042-.129-.042-.3-.084-.431-.042-.172-.042-.3-.084-.474v-.086c-.042-.345-.125-.732-.167-1.077,0-.086-.042-.172-.042-.259a.561.561,0,0,0-.042-.259,2.534,2.534,0,0,1-.042-.56c0-.129-.042-.258-.042-.345-.042-.259-.042-.474-.084-.733,0-.172-.042-.345-.042-.56v-.3c0-.259-.042-.517-.042-.776h0v-1.034h0v-4.568c0-.215.042-.431.042-.6v-1.206h0v-3.749h0v-1.207c0-.431-.042-.862-.042-1.25a1.819,1.819,0,0,0-.042-.474v-.215c-.042-.474-.042-.9-.084-1.336v-.086a.562.562,0,0,0-.042-.259.865.865,0,0,0-.042-.3c0-.129-.042-.258-.042-.388,0-.086,0-.129-.042-.172,0-.129-.042-.258-.042-.345a.265.265,0,0,0-.042-.172c0-.129-.042-.215-.042-.345a.334.334,0,0,0-.042-.172,7.177,7.177,0,0,0-.251-.948,19.92,19.92,0,0,0-2.259-4.094,37.279,37.279,0,0,0-17.527-11.634c-10.541-3.1-18.113-10.945-18.113-10.945a1.863,1.863,0,0,1-.251-.3,6.409,6.409,0,0,1-.46-.56c-.878-1.12-1.631-2.154-2.3-3.189-.084-.086-.125-.215-.209-.3-.335-.517-.627-1.034-.92-1.508a.945.945,0,0,0-.125-.215c-.125-.259-.251-.474-.376-.733a2023.145,2023.145,0,0,1-.251-.431,1011.893,1011.893,0,0,1-.251-.431.948.948,0,0,0-.125-.215,2.589,2.589,0,0,0-.167-.345c-.042-.086-.084-.215-.125-.3a1.831,1.831,0,0,1-.167-.431c-.042-.129-.084-.215-.125-.345,0-.043-.042-.043-.042-.086-.125-.3-.209-.56-.293-.819a.816.816,0,0,1-.084-.3c-.042-.086-.042-.129-.084-.215s-.042-.215-.084-.3c0-.043,0-.043-.042-.086a2.79,2.79,0,0,1-.084-.3,1.291,1.291,0,0,1-.084-.388c-.042-.086-.042-.172-.084-.259a.162.162,0,0,0-.042-.129c-.042-.129-.042-.258-.084-.388,0-.086-.042-.172-.042-.259,0-.043-.042-.129-.042-.172,0-.086-.042-.172-.042-.3v-.043c0-.086-.042-.172-.042-.3s-.042-.259-.042-.388a.561.561,0,0,0-.042-.258,10.124,10.124,0,0,1,.795-5.731c1.841-3.921,4.978-3.318,6.568-2.715a5.919,5.919,0,0,1,1,.517L467.74,557.7a4.438,4.438,0,0,0,1.3.9h0a8.647,8.647,0,0,0,3.054.733c4.016.517,10.039,4.05,10.039,4.05,7.906,5.817,36.728,14.78,36.895,14.823A25.154,25.154,0,0,1,531.741,587.774Z" transform="translate(-309.619 -358.28)"/><path class="g" d="M479.494,559.485a4.441,4.441,0,0,1-1.3-.9l-13.177-8.963a5.921,5.921,0,0,0-1-.517l-.126,1.077a.992.992,0,0,0,.418.9l8.283,5.731A12.126,12.126,0,0,0,479.494,559.485Z" transform="translate(-319.951 -359.033)"/></g><g class="d" transform="translate(0)"><path class="j" d="M506.732,769.5a47.665,47.665,0,0,0,4.309,4.481v.043s-4.225-3.318-5.062-.819a9.192,9.192,0,0,1-7.446,4.7,7.139,7.139,0,0,1,.669,6.679,12.17,12.17,0,0,1-5.605,6.377,39.4,39.4,0,0,1-12.549,2.284,13.209,13.209,0,0,0-2.426,9.7c-.084-.086-2.384-4.352-1.213-7.282,0,0,.669-2.93-1.924-2.284a53.324,53.324,0,0,1-17.193-2.025c-.084-.043-.125-.129-.209-.172l-.251-.258c-.293-.3-.627-.646-.92-.991l-.209-.216a.752.752,0,0,1-.167-.215c-.042-.086-.125-.129-.167-.215s-.125-.129-.167-.215l-.167-.172c-.084-.086-.167-.215-.251-.3s-.167-.216-.251-.3-.167-.215-.251-.3a2.38,2.38,0,0,1-.251-.345c-.084-.129-.167-.216-.251-.345l-.251-.388a1.832,1.832,0,0,1-.209-.3c-.084-.129-.125-.215-.209-.345s-.126-.215-.209-.345a10.187,10.187,0,0,0,1.59,2.025c9.2,6.55,33.339,2.2,33.339,2.2,6.609-1.25,8.032-5.86,8.032-5.86a6.528,6.528,0,0,0-.962-7.584,16.252,16.252,0,0,0-1.213-1.206c7.739,1.422,11.336-4.7,11.964-5.9C506.69,769.586,506.732,769.5,506.732,769.5Z" transform="translate(-314.143 -484.464)"/><path class="f" d="M489.94,772.906c.042.043.125.043.167.086a5.319,5.319,0,0,1,.795.56c.042.043.084.086.126.086.084.043.125.129.209.172a10.77,10.77,0,0,1,1.213,1.206,6.4,6.4,0,0,1,.962,7.584,8.5,8.5,0,0,1-3.346,4.007h0c-.084.043-.125.086-.209.129-.209.129-.46.3-.711.431-.335.172-.669.345-1.088.517h-.042a2,2,0,0,1-.293.129,3.6,3.6,0,0,1-.627.215.961.961,0,0,1-.335.086c-.084.043-.167.043-.251.086h-.042c-.042,0-.084.043-.167.043a2.606,2.606,0,0,1-.293.086c-.084.043-.209.043-.293.086-.125.043-.251.043-.376.086,0,0-24.136,4.352-33.339-2.2a10.183,10.183,0,0,1-1.59-2.025c-.042-.086-.125-.215-.167-.3-.042-.043-.042-.086-.084-.129a13.7,13.7,0,0,1-1.255-2.758,1.847,1.847,0,0,0-.084-.215,14.133,14.133,0,0,1-.669-6.334,10.567,10.567,0,0,1,4.309-7.325,6.27,6.27,0,0,1,.837-.517,2.841,2.841,0,0,1,.544-.259l.251-.043,21.627,1.293a15.782,15.782,0,0,1,5.438,1.336l7.7,3.4A3.494,3.494,0,0,1,489.94,772.906Z" transform="translate(-310.737 -482.699)"/><path class="f" d="M494.211,716.9a5.174,5.174,0,0,0,.293.862l.125.388a3.866,3.866,0,0,1,.209.646c.042.172.125.3.167.474.084.259.209.56.293.819a1.553,1.553,0,0,0,.167.388.877.877,0,0,0,.167.345,4.533,4.533,0,0,0,.167.431c.084.172.125.345.209.517a2.678,2.678,0,0,1,.209.517,4.26,4.26,0,0,1,.209.474,4.756,4.756,0,0,0,.251.474,2.346,2.346,0,0,1,.209.474c0,.043.042.043.042.086a2.038,2.038,0,0,1,.209.431c.167.3.335.646.5.948.084.172.167.3.251.474a2.907,2.907,0,0,0,.293.474c.209.3.377.646.586.948a2.626,2.626,0,0,0,.293.431c.084.172.209.3.293.474s.209.3.293.474c.125.172.209.3.335.474.209.3.418.6.669.9.209.3.418.56.628.819.46.6.962,1.206,1.464,1.81a1.849,1.849,0,0,0-.084.215c-.627,1.206-4.225,7.325-11.964,5.9-.084-.043-.126-.129-.209-.172-.042-.043-.084-.086-.126-.086a8.939,8.939,0,0,0-.795-.56c-.042-.043-.125-.043-.167-.086a8.685,8.685,0,0,0-1.088-.56l-7.7-3.4a16.016,16.016,0,0,0-5.438-1.336l-21.627-1.293-.084-.043a.317.317,0,0,1,.125-.043h0a11.554,11.554,0,0,1-1.046-.991,15.225,15.225,0,0,1-1.129-1.25,17.726,17.726,0,0,1-4.016-14.693,14.965,14.965,0,0,1,5.647-8.144,8.686,8.686,0,0,1,2.008-1.12h0s2.97-1.163,9.2,1.034Z" transform="translate(-310.197 -447.463)"/><path class="f" d="M489.555,661.942l9.621,6.593c0,.517,0,.991-.042,1.422v.388a1.662,1.662,0,0,1-.042.474c-.042.776-.084,1.594-.125,2.37v3.835a2.73,2.73,0,0,0,.042.56v.043c0,.172.042.345.042.517s.042.388.042.56c.042.345.042.732.084,1.077,0,.172.042.388.042.56s.042.345.042.517a9.6,9.6,0,0,0,.167,1.077c.042.172.042.345.084.517.042.129.042.3.084.431v.129c.042.172.042.345.084.517a2.226,2.226,0,0,1,.084.517l.126.517c.084.345.167.732.251,1.077.042.172.084.3.125.474a4.815,4.815,0,0,0,.209.733c.042.215.125.388.167.6.042.129.084.258.125.431.042.086.042.215.084.3L470.9,677.153c-6.233-2.2-9.2-1.034-9.2-1.034s-.125-.172-.376-.474c-.042-.043-.042-.086-.084-.086-.167-.215-.335-.517-.544-.862a10.671,10.671,0,0,1-.753-1.422c-.042-.043-.042-.086-.084-.129a15.281,15.281,0,0,1-.878-2.585.562.562,0,0,1-.042-.258,11.067,11.067,0,0,1-.209-1.25.4.4,0,0,0-.042-.215c-.042-.3-.042-.56-.084-.862v-1.293c0-.3.042-.6.042-.9,0-.086.042-.215.042-.345s.042-.259.042-.388.042-.215.042-.345c.042-.172.042-.3.084-.474.042-.129.042-.259.084-.388v-.086c0-.086.042-.172.042-.258a1.917,1.917,0,0,0,.042-.215c.042-.086.042-.215.084-.3s.042-.172.084-.259v-.043c.042-.086.042-.215.084-.3a.816.816,0,0,0,.084-.3c.042-.172.126-.3.167-.474a2.13,2.13,0,0,0,.125-.3c.084-.172.126-.345.209-.517a4.537,4.537,0,0,0,.167-.431c.042-.129.125-.258.167-.388l.251-.517h0a.042.042,0,0,1,.042-.043l.042-.043c.042-.086.167-.215.293-.388.042-.043.042-.086.084-.129a7.617,7.617,0,0,1,.586-.646c.084-.086.126-.172.209-.215.209-.215.418-.431.669-.646l.125-.129a10.585,10.585,0,0,1,1-.819c.084-.043.126-.086.209-.129.209-.129.418-.3.669-.431.084-.043.125-.086.209-.129.167-.086.293-.172.46-.258a10.91,10.91,0,0,1,3.388-1.163c.5-.086,1.046-.129,1.59-.172h.92a1.383,1.383,0,0,1,.418.043.794.794,0,0,1,.293.043h.042c.084,0,.209.043.293.043.125,0,.251.043.376.043.084,0,.209.043.335.043.084,0,.209.043.293.043.293.086.586.129.878.215A46.2,46.2,0,0,1,489.555,661.942Z" transform="translate(-316.877 -418.789)"/></g><g class="d" transform="translate(0)"><path class="j" d="M552.729,732.579l.125.388.125.388a3.048,3.048,0,0,0,.209.56A47.446,47.446,0,0,0,547.5,731.2,30.739,30.739,0,0,1,552.729,732.579Z" transform="translate(-368.589 -462.667)"/></g><g class="d" transform="translate(0)"><path class="i" d="M661.4,654.3c6.107,8.1,16.4,21.76,16.4,21.76,6.986,7.454,13.511,13.659,19.828,17.968a45.138,45.138,0,0,0,4.225,2.628l22.463,12.367c-11.253-4.524-20.581-9.178-27.316-12.194-2.552-1.12-4.727-2.025-6.484-2.585a2.232,2.232,0,0,0-3.054,1.594,18.909,18.909,0,0,1-3.137,8.058c-.042-6.076-2.092-12.927-4.978-19.649C673.949,671.837,665.625,659.945,661.4,654.3Z" transform="translate(-434.844 -418.902)"/></g><g class="d" transform="translate(0)"><path class="i" d="M655.2,646.4l.125.129c.376.474.795,1.034,1.213,1.637C655.744,647.046,655.242,646.443,655.2,646.4Z" transform="translate(-431.237 -414.407)"/></g><g class="d" transform="translate(0)"><path class="i" d="M451,583.6a1.765,1.765,0,0,0,.209.388c-.042-.086-.084-.129-.084-.215A.594.594,0,0,1,451,583.6Z" transform="translate(-312.456 -378.667)"/><path class="i" d="M451.5,584.7a4.046,4.046,0,0,1,.209.431c-.042-.086-.084-.129-.125-.215A.334.334,0,0,0,451.5,584.7Z" transform="translate(-312.747 -379.293)"/><path class="i" d="M596.842,785.243c.418.345.795.646,1.213.948-.209-.172-.418-.3-.628-.474a7.18,7.18,0,0,1-.586-.474l-.042-.043A.042.042,0,0,0,596.842,785.243Z" transform="translate(-397.267 -493.398)"/><path class="i" d="M452.984,587.429c-.042-.043-.042-.086-.084-.129C452.9,587.343,452.942,587.386,452.984,587.429Z" transform="translate(-313.561 -380.772)"/><path class="i" d="M453.4,588.2c.167.259.293.517.46.819-.126-.215-.293-.474-.418-.689A.161.161,0,0,0,453.4,588.2Z" transform="translate(-313.852 -381.285)"/><path class="i" d="M456.76,593.546c-.167-.215-.293-.431-.46-.646C456.467,593.115,456.593,593.331,456.76,593.546Z" transform="translate(-315.539 -383.959)"/><path class="i" d="M452.1,585.7a2.038,2.038,0,0,1,.209.431c-.042-.086-.084-.129-.125-.215C452.142,585.872,452.142,585.786,452.1,585.7Z" transform="translate(-313.096 -379.862)"/><path class="i" d="M460.029,597.908A17.663,17.663,0,0,1,458.9,596.4C459.276,596.917,459.653,597.434,460.029,597.908Z" transform="translate(-317.051 -385.951)"/><path class="i" d="M455.118,591.046c-.125-.215-.293-.431-.418-.646C454.826,590.572,454.951,590.788,455.118,591.046Z" transform="translate(-314.608 -382.537)"/><path class="i" d="M449.9,581.1a2.341,2.341,0,0,0,.209.474c0-.043-.042-.043-.042-.086A1.555,1.555,0,0,1,449.9,581.1Z" transform="translate(-311.816 -377.244)"/><path class="i" d="M446.642,569.745c0-.129-.042-.215-.042-.345,0,.129.042.258.042.388C446.684,569.788,446.684,569.788,446.642,569.745Z" transform="translate(-309.897 -370.585)"/><path class="i" d="M448.5,577.6c.042.172.126.345.167.56a3.029,3.029,0,0,0-.125-.345A.331.331,0,0,0,448.5,577.6Z" transform="translate(-311.002 -375.252)"/><path class="i" d="M604.471,790.862c-.084-.086-.209-.129-.293-.215a.041.041,0,0,1-.042-.043c-.293-.215-.586-.388-.837-.6h0C603.676,790.3,604.053,790.56,604.471,790.862Z" transform="translate(-401.047 -496.13)"/><path class="i" d="M601.055,788.391c-.167-.129-.293-.215-.46-.345a3.175,3.175,0,0,1-.586-.474.041.041,0,0,1-.042-.043.579.579,0,0,0-.167-.129.579.579,0,0,0,.167.129A10.74,10.74,0,0,0,601.055,788.391Z" transform="translate(-399.012 -494.65)"/><path class="i" d="M447.2,572.6h0c.042.129.042.258.084.431v-.043A1.29,1.29,0,0,1,447.2,572.6Z" transform="translate(-310.246 -372.407)"/><path class="i" d="M448.342,577.086A.152.152,0,0,0,448.3,577C448.342,577.043,448.342,577.043,448.342,577.086Z" transform="translate(-310.885 -374.911)"/><path class="i" d="M449.1,579.1c.042.129.125.3.167.431,0-.043,0-.043-.042-.086A3.03,3.03,0,0,1,449.1,579.1Z" transform="translate(-311.351 -376.106)"/><path class="i" d="M447.6,574.3v0Z" transform="translate(-310.478 -373.374)"/><path class="i" d="M448,576c.042.086.042.129.084.215,0-.043-.042-.086-.042-.172Z" transform="translate(-310.711 -374.342)"/><path class="i" d="M450.725,583.1a2.13,2.13,0,0,1-.125-.3C450.642,582.886,450.684,583.015,450.725,583.1Z" transform="translate(-312.223 -378.211)"/><path class="i" d="M555.2,696.1v.086h0Z" transform="translate(-373.068 -442.691)"/><path class="i" d="M555.1,704.2v0Z" transform="translate(-373.01 -447.301)"/><path class="i" d="M555.2,707.3a2.73,2.73,0,0,0,.042.56v.259c0-.259-.042-.517-.042-.819Z" transform="translate(-373.068 -449.065)"/><path class="i" d="M586.5,776.2Z" transform="translate(-391.275 -488.277)"/><path class="i" d="M614.676,797.372a8.748,8.748,0,0,0-.878-.474c-.335-.172-.669-.388-1-.56a7.34,7.34,0,0,1-.962-.6c-.293-.172-.586-.345-.837-.517a2.322,2.322,0,0,1-.335-.216c-.167-.086-.293-.215-.46-.3C611.622,795.6,613.128,796.51,614.676,797.372Z" transform="translate(-405.061 -498.805)"/><path class="i" d="M555.6,685.188v0Z" transform="translate(-373.301 -436.26)"/><path class="i" d="M578.36,767.36c-.167-.172-.293-.388-.46-.56C578.026,766.972,578.193,767.145,578.36,767.36Z" transform="translate(-386.273 -482.927)"/><path class="i" d="M458.018,595.2c-.125-.215-.293-.388-.418-.6A7.311,7.311,0,0,0,458.018,595.2Z" transform="translate(-316.295 -384.927)"/><path class="i" d="M555.1,705.076v-.517h0v.517Z" transform="translate(-373.01 -447.358)"/><path class="i" d="M609.725,794.386c-.042-.043-.084-.043-.125-.086C609.642,794.3,609.684,794.343,609.725,794.386Z" transform="translate(-404.712 -498.577)"/><path class="i" d="M576.642,765.243h0l-.042-.043Z" transform="translate(-385.516 -482.016)"/><path class="i" d="M555.5,691.829h0v0Z" transform="translate(-373.243 -440.187)"/><path class="i" d="M554.3,664.9Z" transform="translate(-372.545 -424.935)"/><path class="i" d="M462.193,600.645a2.14,2.14,0,0,0-.293-.345C461.984,600.386,462.067,600.515,462.193,600.645Z" transform="translate(-318.796 -388.171)"/><path class="i" d="M555.4,692.575h0v0Z" transform="translate(-373.185 -440.674)"/><path class="i" d="M555.356,709.9h0c0,.172.042.388.042.56h0A2.526,2.526,0,0,1,555.356,709.9Z" transform="translate(-373.141 -450.545)"/><path class="i" d="M555.6,689.329v.259h0V689.2h0Z" transform="translate(-373.301 -438.764)"/><path class="i" d="M555.5,690.1Z" transform="translate(-373.243 -439.276)"/><path class="i" d="M555.5,691.115v0Z" transform="translate(-373.243 -439.732)"/><path class="i" d="M557.925,726.6c-.042-.215-.084-.388-.125-.6A1.411,1.411,0,0,0,557.925,726.6Z" transform="translate(-374.581 -459.707)"/><path class="i" d="M555.6,680.445v0Z" transform="translate(-373.301 -433.585)"/><path class="i" d="M555.6,681.6Z" transform="translate(-373.301 -434.439)"/><path class="i" d="M555.156,671.029c-.042,0-.042-.043,0,0V670.9A.082.082,0,0,0,555.156,671.029Z" transform="translate(-373.025 -428.35)"/><path class="i" d="M555.4,674.972v0Z" transform="translate(-373.185 -430.569)"/><path class="i" d="M555.4,676Z" transform="translate(-373.185 -431.252)"/><path class="i" d="M555.6,682.85v0Z" transform="translate(-373.301 -434.439)"/><path class="i" d="M556.125,717.619c-.042-.258-.084-.56-.125-.819C556.042,717.1,556.084,717.36,556.125,717.619Z" transform="translate(-373.534 -454.472)"/><path class="i" d="M556.642,720.829v0a.161.161,0,0,0-.042-.129A.161.161,0,0,1,556.642,720.829Z" transform="translate(-373.883 -456.691)"/><path class="i" d="M555.7,713.7c0,.172.042.388.042.56h0c0-.172-.042-.345-.042-.56Z" transform="translate(-373.359 -452.707)"/><path class="i" d="M480.2,615.1a46.756,46.756,0,0,0,6.358,3.533A39.006,39.006,0,0,1,480.2,615.1Z" transform="translate(-329.441 -396.594)"/><path class="i" d="M595.786,784.474l-.042-.043A6.178,6.178,0,0,0,595.2,784,3.173,3.173,0,0,1,595.786,784.474Z" transform="translate(-396.336 -492.716)"/><path class="i" d="M463.374,602a40.884,40.884,0,0,0,3.974,3.447A35.31,35.31,0,0,1,463.374,602Z" transform="translate(-319.643 -389.138)"/><path class="i" d="M548.828,700.323c-6.4-3.275-6.066-7.541-6.066-7.541l.544-9.738c-9.83,9.781-16.23,6.506-16.23,6.506a24.389,24.389,0,0,0-7.99-1.422,15.4,15.4,0,0,0-3.723.388c-9.161,2.2-20.079-1.81-20.079-1.81a12.086,12.086,0,0,1-6.735-10.815c-.084-7.627,7.446-7.928,7.446-7.928,5.4-1.206,3.932-6.636,3.932-6.636-.962-3.878-.753-6.334.167-7.842a3.041,3.041,0,0,1,4.1-.948,70.01,70.01,0,0,0,15.854,6.506L516.7,657.19a71.747,71.747,0,0,1-7.53-4.783c-.418-.3-.878-.646-1.3-.948a.579.579,0,0,0-.167-.129c-.418-.3-.837-.646-1.213-.948-.042-.043-.084-.043-.084-.086-.376-.3-.753-.646-1.129-.948-.042-.043-.084-.086-.125-.086a12.042,12.042,0,0,1-1.088-.991c-.084-.043-.125-.129-.167-.172-.335-.345-.711-.646-1.046-.991-.042-.043-.125-.086-.167-.172-.335-.345-.711-.689-1.046-1.034l-.042-.043c-.711-.733-1.38-1.508-2.05-2.284a.042.042,0,0,0-.042-.043c-.5-.6-1-1.206-1.464-1.81-.209-.259-.418-.56-.627-.819-.209-.3-.418-.6-.669-.9-.125-.172-.209-.3-.335-.474-.084-.172-.209-.3-.293-.474s-.209-.3-.293-.474c-.084-.129-.209-.3-.293-.431-.209-.3-.376-.646-.586-.948a2.915,2.915,0,0,0-.293-.474c-.084-.172-.167-.3-.251-.474-.167-.3-.335-.646-.5-.948a2.034,2.034,0,0,1-.209-.431c0-.043-.042-.043-.042-.086a2.343,2.343,0,0,1-.209-.474,4.766,4.766,0,0,0-.251-.474,81851.464,81851.464,0,0,0-.418-.948c-.084-.172-.125-.345-.209-.517a1.836,1.836,0,0,1-.167-.431.875.875,0,0,0-.167-.345c-.042-.129-.125-.259-.167-.388a6.405,6.405,0,0,1-.293-.819c-.042-.172-.125-.3-.167-.474a.152.152,0,0,0-.042-.086c-.084-.172-.125-.388-.209-.56l-.125-.388-.125-.388c-.042-.172-.084-.3-.126-.474-.042-.086-.042-.215-.084-.3-.042-.129-.084-.259-.126-.431-.042-.215-.125-.388-.167-.6-.084-.258-.125-.474-.209-.732-.042-.172-.084-.3-.125-.474-.084-.345-.167-.733-.251-1.077l-.126-.517a1710.647,1710.647,0,0,0-.167-1.034v-.129c-.042-.129-.042-.3-.084-.431-.042-.172-.042-.345-.084-.517-.042-.345-.125-.733-.167-1.077a2.16,2.16,0,0,1-.042-.517,2.528,2.528,0,0,1-.042-.56,9.343,9.343,0,0,1-.084-1.077c0-.172-.042-.345-.042-.56,0-.172-.042-.345-.042-.517v-.043a2.727,2.727,0,0,0-.042-.56v-2.542c0-.776.042-1.508.042-2.284V611.9c.042-.431.042-.819.084-1.25a10.453,10.453,0,0,0,.042-1.207h0v-.388c0-.56.042-1.207.042-1.9v-1.379h0c-.042-3.1-.251-6.463-.711-7.627a19.921,19.921,0,0,0-2.259-4.093,37.279,37.279,0,0,0-17.527-11.634c-10.541-3.1-18.113-10.945-18.113-10.945-5.062-6.076-6.693-10.945-7.028-14.349a10.125,10.125,0,0,1,.795-5.731,5.079,5.079,0,0,1,3.3-3.059c-1.673-.345-3.932-.086-5.438,3.059a9.3,9.3,0,0,0-.878,4.654c-.251,3.361.627,9.264,6.986,16.934,0,0,7.571,7.842,18.113,10.945a37.069,37.069,0,0,1,17.527,11.634,19.126,19.126,0,0,1,2.259,4.094,18.516,18.516,0,0,1,.586,4.524l-8.366-5.9s-10.123-7.067-18.657-6.593l4.225,2.8a6.533,6.533,0,0,0-.878-.215.693.693,0,0,0-.293-.043c-.125,0-.209-.043-.335-.043a1.127,1.127,0,0,0-.376-.043c-.125,0-.209-.043-.293-.043H461.9c-.084,0-.167-.043-.293-.043s-.293-.043-.418-.043h-.92a9.463,9.463,0,0,0-1.59.172s18.447,8.144,22.045,13.573A15.455,15.455,0,0,1,483.4,618.41s-.167,5.774-4.35,4.223l-20.706-7.756s-4.35-1.422-7.53-.259c.209.345.376.646.544.862.042.043.042.086.084.086a4.074,4.074,0,0,0,.376.474h-.084c-.042,0-.084.043-.167.086a.145.145,0,0,0-.084.043,9.773,9.773,0,0,0-1.255.689c-.042.043-.084.043-.126.086s-.084.043-.125.086c-.084.043-.126.086-.209.129a28.517,28.517,0,0,1,12.3,1.982l18.029,6.98s7.53,3.4,5.94,10.126c0,0-.753,10.126-6.4,7.756l-.795-.345a24.7,24.7,0,0,0-8.408-2.111L448.141,640a2.768,2.768,0,0,1,.335.388l.209.215a7.85,7.85,0,0,0,.586.6c.335.345.669.646,1.046.991h0a.18.18,0,0,1-.126.043l.084.043-.251.043c-.126.043-.335.172-.544.259a3.1,3.1,0,0,0-.5.3c-.042.043-.084.043-.125.086a.907.907,0,0,1-.209.129l21.25,2.284a24.822,24.822,0,0,1,6.818,1.724l1.8.733s4.476,3.533,4.56,7.5c0,0,.418,5.515-5.647,9.7h0c-7.32.9-22.38,2.025-29.2-2.8a10.183,10.183,0,0,1-1.59-2.025c.084.129.125.215.209.345s.125.215.209.345c.042.086.125.172.209.3l.251.388c.084.129.167.215.251.345s.167.215.251.345c.084.086.167.215.251.3a1.858,1.858,0,0,0,.251.3c.084.086.167.215.251.3.042.043.084.129.167.172.042.086.125.129.167.215s.125.129.167.215.125.129.167.215l.209.215c.293.345.627.689.92.991l.251.259.251.258c.418.388.837.776,1.213,1.12.084.086.167.129.209.172s.084.043.084.086c.084.043.125.129.209.172s.167.129.251.172.125.086.209.129a.919.919,0,0,1,.209.172,3.614,3.614,0,0,1,.418.3.314.314,0,0,0,.167.086l.251.129h0l36.351,20.9s15.185,7.411,25.1,5.257c0,0,12.256-1.594,28.7,7.972l78.642,48.734,2.51-4.826Z" transform="translate(-306.878 -358.538)"/><path class="i" d="M495.4,623.4c.878.388,1.8.776,2.761,1.12C497.2,624.176,496.278,623.788,495.4,623.4Z" transform="translate(-338.283 -401.317)"/><path class="i" d="M556.974,722.172V722C556.932,722.086,556.974,722.129,556.974,722.172Z" transform="translate(-374.089 -457.431)"/><path class="i" d="M472.8,610a35.678,35.678,0,0,0,3.1,2.2C474.724,611.465,473.72,610.689,472.8,610Z" transform="translate(-325.137 -393.691)"/><path class="i" d="M521.451,638.18a19.126,19.126,0,0,1,2.259,4.094h0a19.922,19.922,0,0,0-2.259-4.094,37.279,37.279,0,0,0-17.527-11.634c-.669-.215-1.3-.388-1.924-.646.627.215,1.3.431,1.924.646A37.279,37.279,0,0,1,521.451,638.18Z" transform="translate(-342.122 -402.74)"/><path class="i" d="M554.956,668.872V668.7C554.915,668.786,554.915,668.829,554.956,668.872Z" transform="translate(-372.908 -427.098)"/><path class="i" d="M554.1,664.3Z" transform="translate(-372.428 -424.594)"/><path class="i" d="M570.684,756.772a2.623,2.623,0,0,0,.293.431,1.886,1.886,0,0,1-.167-.3c-.084-.086-.126-.215-.209-.3A.226.226,0,0,0,570.684,756.772Z" transform="translate(-382.026 -477.122)"/><path class="i" d="M569.4,754.8Z" transform="translate(-381.328 -476.098)"/><path class="i" d="M572.667,759.915c.042.043.042.086.084.086-.042-.043-.084-.043-.084-.086a.429.429,0,0,0-.167-.215A.937.937,0,0,1,572.667,759.915Z" transform="translate(-383.131 -478.886)"/><path class="i" d="M568.1,752.5l.125.259-.125-.259Z" transform="translate(-380.572 -474.789)"/><path class="i" d="M580.2,769.6Z" transform="translate(-387.61 -484.52)"/><path class="i" d="M590.6,780c.084.043.125.129.167.172h0L590.6,780Z" transform="translate(-393.66 -490.439)"/><path class="i" d="M592.786,782.017c.042.043.084.086.125.086a.041.041,0,0,1,.042.043.041.041,0,0,1-.042-.043c-.042-.043-.084-.086-.125-.086-.125-.129-.251-.215-.377-.345-.084-.043-.125-.129-.209-.172A7.316,7.316,0,0,1,592.786,782.017Z" transform="translate(-394.591 -491.293)"/><path class="i" d="M566.2,749.1Z" transform="translate(-379.467 -472.854)"/><path class="i" d="M587.925,777.529h0l-.125-.129h0Z" transform="translate(-392.031 -488.959)"/><path class="i" d="M558.8,730.2Z" transform="translate(-375.162 -462.098)"/><path class="i" d="M557.142,723.529h0a.161.161,0,0,0-.042-.129A.161.161,0,0,1,557.142,723.529Z" transform="translate(-374.173 -458.228)"/><path class="i" d="M564.867,746.388a4.764,4.764,0,0,0,.251.474v-.043a1.444,1.444,0,0,1-.251-.431c-.042-.129-.125-.259-.167-.388A1.555,1.555,0,0,0,564.867,746.388Z" transform="translate(-378.594 -471.09)"/><path class="i" d="M557.442,724.558h0c0-.086-.042-.172-.042-.258A.561.561,0,0,0,557.442,724.558Z" transform="translate(-374.348 -458.74)"/><path class="i" d="M559.226,731.988l-.125-.388h0A.709.709,0,0,1,559.226,731.988Z" transform="translate(-375.337 -462.894)"/><path class="i" d="M558.125,727.874h0c-.042-.172-.084-.3-.125-.474a2.72,2.72,0,0,1,.125.474Z" transform="translate(-374.697 -460.504)"/><path class="i" d="M563.326,743.1h0a2.135,2.135,0,0,1-.125-.3C563.242,742.886,563.284,743.015,563.326,743.1Z" transform="translate(-377.722 -469.268)"/><path class="i" d="M561.1,737.5a.152.152,0,0,0,.042.086h0c0-.043-.042-.043-.042-.086Z" transform="translate(-376.5 -466.252)"/><path class="i" d="M560.542,736.029h0c0-.043-.042-.086-.042-.129A.161.161,0,0,1,560.542,736.029Z" transform="translate(-376.151 -465.342)"/><path class="i" d="M559.7,733.3c.042.172.084.3.125.474.042.129.084.215.125.345a.818.818,0,0,1-.084-.3c0-.043,0-.043-.042-.086-.042-.129-.084-.3-.125-.431Z" transform="translate(-375.686 -463.862)"/></g><g class="d" transform="translate(0)"><path class="k" d="M715.822,746.5c.251.172.5.345.711.474a.042.042,0,0,1,.042.043,6.272,6.272,0,0,0,.711.431c.251.172.5.3.711.474.251.129.46.3.711.431h.042a3.1,3.1,0,0,1,.5.3,4.728,4.728,0,0,0,.795.431l84.624,46.623L796.221,812l.167.086-30.537,58.774-21.166-10.385-4.56-2.241-44.508-21.846-1.171-.646a2.745,2.745,0,0,1-1.3-1.551,12.836,12.836,0,0,1-.293-5.86c1.171-2.628,2.426-5.86,3.681-9.523,0-.043,0-.043.042-.086.418-1.25.878-2.585,1.339-3.964q1.443-4.4,2.886-9.307c1.213-4.05,2.384-8.316,3.6-12.668,4.225-15.555,8.2-32.188,10.834-43.607.209-.862.376-1.724.586-2.542C715.78,746.672,715.822,746.586,715.822,746.5Z" transform="translate(-453.04 -471.374)"/></g><g class="d" transform="translate(0)"><path class="e" d="M730.086,736.162l82.825,45.675-41.789,80.448-3.807-1.853-21.167-10.385-.753-.388-43.5-21.329a4.2,4.2,0,0,1-1.882-5.6,82.349,82.349,0,0,0,3.388-8.359c.46-1.25.92-2.585,1.38-3.964,2.133-6.42,4.392-14.09,6.567-22.019.335-1.163.628-2.37.962-3.576,3.974-14.866,7.613-30.249,9.914-40.332.167-.776.335-1.551.5-2.284v-.043c.251-1.034.46-2.025.669-2.93A4.629,4.629,0,0,1,730.086,736.162Z" transform="translate(-457.056 -465.172)"/></g><g class="d" transform="translate(0)"><path class="k" d="M828.85,786l44.508,24.518L828.6,896.74l-25.1-13.832,5.605-10.729c.125-.259.293-.517.418-.819.418-.862.837-1.681,1.213-2.585.293-.646.586-1.336.837-1.982.125-.3.251-.6.335-.862,3.1-8.015,5.647-15.512,7.739-22.493a243.591,243.591,0,0,0,6.693-27.793A166,166,0,0,0,828.682,796C828.933,791.86,828.933,788.542,828.85,786Z" transform="translate(-517.502 -493.854)"/></g><g class="d" transform="translate(0)"><path class="l" d="M842.4,783.2l151.846,83.723-49.57,95.4L813.332,889.885a3.861,3.861,0,0,1-1.506-5.085l6.275-12.022c.084-.172.209-.388.293-.56.46-.9.92-1.853,1.339-2.8.293-.6.544-1.207.795-1.81.125-.345.293-.689.418-1.034,3.1-8.015,5.647-15.512,7.739-22.493a243.552,243.552,0,0,0,6.693-27.793,166,166,0,0,0,2.343-19.649c.251-4.094.251-7.454.167-10v-.474A3.088,3.088,0,0,1,842.4,783.2Z" transform="translate(-522.105 -492.04)"/></g><g class="d" transform="translate(0)"><path class="m" d="M695.424,913l190,104.75-9.7,18.658L744.367,963.975a3.861,3.861,0,0,1-1.506-5.084l.669-1.293-48.984-26.974a2.745,2.745,0,0,1-1.3-1.551,12.835,12.835,0,0,1-.293-5.86A46,46,0,0,1,695.424,913Z" transform="translate(-453.098 -566.13)"/><path class="m" d="M812.6,1016.6l134.57,74.2-2.384,4.568-131.349-72.433a3.861,3.861,0,0,1-1.506-5.085Z" transform="translate(-522.163 -625.089)"/></g><g class="d"><ellipse class="k" cx="6.902" cy="7.11" rx="6.902" ry="7.11" transform="translate(116.039 203.77)"/></g><g class="d"><ellipse class="k" cx="6.902" cy="7.11" rx="6.902" ry="7.11" transform="translate(266.63 356.091)"/></g><g class="d" transform="translate(0)"><path class="n" d="M409.449,574.655a7.437,7.437,0,0,1,2.677,9.954l-.586,1.034-12.34-7.2.586-1.034A7,7,0,0,1,409.449,574.655Z" transform="translate(-282.324 -373.04)"/><ellipse class="o" cx="7.069" cy="7.282" rx="7.069" ry="7.282" transform="translate(115.997 201.745)"/><ellipse class="p" cx="5.564" cy="5.731" rx="5.564" ry="5.731" transform="translate(117.503 203.296)"/><ellipse class="q" cx="4.56" cy="4.697" rx="4.56" ry="4.697" transform="translate(118.507 204.33)"/><g transform="translate(118.496 204.933)"><path class="r" d="M410.859,593.1l3.974,2.327a4.472,4.472,0,0,1-6.233,1.767Z" transform="translate(-406.288 -589.006)"/><path class="s" d="M403.67,587.7l3.974,2.327-2.259,4.093A4.793,4.793,0,0,1,403.67,587.7Z" transform="translate(-403.073 -585.933)"/><path class="t" d="M416.259,583.6a4.754,4.754,0,0,1,1.715,6.42L414,587.693Z" transform="translate(-409.429 -583.6)"/></g></g><g class="d" transform="translate(0)"><path class="n" d="M768.949,927.155a7.438,7.438,0,0,1,2.677,9.954l-.586,1.034-12.34-7.2.586-1.034A7.014,7.014,0,0,1,768.949,927.155Z" transform="translate(-491.442 -573.649)"/><ellipse class="o" cx="7.069" cy="7.282" rx="7.069" ry="7.282" transform="translate(266.379 353.635)"/><ellipse class="p" cx="5.564" cy="5.731" rx="5.564" ry="5.731" transform="translate(267.885 355.186)"/><ellipse class="q" cx="4.56" cy="4.697" rx="4.56" ry="4.697" transform="translate(268.889 356.22)"/><g transform="translate(268.878 356.823)"><path class="r" d="M770.359,945.6l3.974,2.327a4.472,4.472,0,0,1-6.233,1.767Z" transform="translate(-765.788 -941.506)"/><path class="t" d="M763.17,940.2l3.974,2.327-2.259,4.094A4.782,4.782,0,0,1,763.17,940.2Z" transform="translate(-762.573 -938.433)"/><path class="s" d="M775.759,936.1a4.754,4.754,0,0,1,1.715,6.42l-3.974-2.327Z" transform="translate(-768.929 -936.1)"/></g></g></g></g></svg>